<?xml version="1.0" encoding="utf-8"?>
<!-- Generator: Adobe Illustrator 13.0.0, SVG Export Plug-In . SVG Version: 6.00 Build 14948)  -->
<!DOCTYPE svg PUBLIC "-//W3C//DTD SVG 1.1//EN" "http://www.w3.org/Graphics/SVG/1.1/DTD/svg11.dtd">
<svg version="1.1" xmlns="http://www.w3.org/2000/svg" xmlns:xlink="http://www.w3.org/1999/xlink" x="0px" y="0px"
	 width="429.988px" height="68.031px" viewBox="19.584 242.714 429.988 68.031"
	 enable-background="new 19.584 242.714 429.988 68.031" xml:space="preserve">
<g id="Calque_10_1_">
	<text transform="matrix(1 0 0 1 110.9355 270.7302)"><tspan x="0" y="0" font-family="'PTMono-Regular'" font-size="12">Your name company</tspan><tspan x="0" y="12" font-family="'PTMono-Regular'" font-size="10">Baseline company</tspan><tspan x="0" y="37.2" font-family="'PTMono-Regular'" font-size="9">address, phone number, email address and url</tspan></text>
</g>
<g id="Mode_Isolation">
	<g>
		<path d="M21.855,255.228h3.354v25.29h11.434v-7.03h2.989v10.022H21.855V255.228z"/>
		<path d="M34.191,268.678c0-4.688,0.827-8.298,2.479-10.825c1.654-2.533,4.2-3.801,7.641-3.801c1.882,0,3.475,0.353,4.778,1.051
			c1.304,0.701,2.359,1.692,3.166,2.97c0.805,1.279,1.383,2.814,1.734,4.604c0.35,1.792,0.523,3.792,0.523,6.001
			c0,4.688-0.827,8.298-2.478,10.828c-1.655,2.533-4.227,3.799-7.723,3.799c-1.854,0-3.427-0.352-4.717-1.05
			c-1.29-0.703-2.34-1.692-3.145-2.971c-0.807-1.277-1.385-2.813-1.734-4.605C34.365,272.889,34.191,270.889,34.191,268.678z
			 M37.706,268.678c0,1.563,0.101,3.046,0.305,4.442c0.201,1.401,0.56,2.636,1.073,3.698c0.513,1.065,1.19,1.913,2.026,2.545
			c0.838,0.635,1.906,0.951,3.202,0.951c2.324,0,4.019-0.943,5.086-2.829c1.067-1.883,1.602-4.821,1.602-8.808
			c0-1.533-0.103-3.01-0.305-4.423c-0.202-1.416-0.561-2.655-1.074-3.716c-0.513-1.065-1.201-1.914-2.067-2.545
			c-0.864-0.635-1.943-0.951-3.241-0.951c-2.297,0-3.971,0.951-5.025,2.85C38.233,261.791,37.706,264.718,37.706,268.678z"/>
		<path d="M66.515,257.328c-0.919-0.189-2.04-0.284-3.365-0.284c-1.134,0-2.224,0.193-3.263,0.584
			c-1.042,0.391-1.961,1.046-2.757,1.961c-0.798,0.915-1.432,2.114-1.905,3.595c-0.474,1.483-0.71,3.314-0.71,5.495
			c0,3.986,0.736,6.925,2.21,8.808c1.472,1.886,3.6,2.829,6.382,2.829c1.73,0,3.202-0.336,4.418-1.011v-7.879h-5.859v-2.707h8.727
			v12.444c-0.432,0.324-0.949,0.62-1.556,0.888c-0.605,0.271-1.252,0.502-1.939,0.69c-0.687,0.186-1.401,0.327-2.14,0.422
			c-0.742,0.096-1.463,0.143-2.163,0.143c-1.805,0-3.421-0.292-4.847-0.867c-1.429-0.581-2.642-1.468-3.638-2.667
			c-0.997-1.2-1.764-2.724-2.303-4.565c-0.538-1.847-0.808-4.021-0.808-6.527c0-2.61,0.337-4.848,1.01-6.707
			c0.674-1.858,1.562-3.372,2.667-4.546c1.104-1.171,2.37-2.023,3.797-2.564c1.429-0.539,2.896-0.809,4.405-0.809
			c1.616,0,2.949,0.088,3.999,0.265c1.052,0.174,1.939,0.41,2.667,0.706l-0.041,0.162v6.748h-2.989V257.328z"/>
		<path d="M70.906,269.352c0-4.688,0.826-8.298,2.48-10.826c1.653-2.533,4.199-3.801,7.64-3.801c1.882,0,3.475,0.353,4.778,1.051
			c1.304,0.702,2.359,1.692,3.166,2.97c0.805,1.279,1.383,2.814,1.734,4.605c0.349,1.792,0.523,3.792,0.523,6.001
			c0,4.688-0.827,8.298-2.478,10.827c-1.656,2.533-4.228,3.799-7.724,3.799c-1.854,0-3.427-0.351-4.716-1.049
			c-1.291-0.703-2.34-1.692-3.146-2.972c-0.807-1.277-1.385-2.812-1.734-4.604C71.08,273.563,70.906,271.562,70.906,269.352z
			 M74.421,269.352c0,1.563,0.101,3.046,0.304,4.442c0.201,1.401,0.56,2.636,1.073,3.698c0.513,1.065,1.189,1.912,2.026,2.544
			c0.838,0.636,1.905,0.952,3.202,0.952c2.324,0,4.019-0.943,5.086-2.83c1.067-1.883,1.602-4.821,1.602-8.807
			c0-1.534-0.103-3.01-0.305-4.423c-0.202-1.416-0.561-2.655-1.074-3.716c-0.513-1.065-1.201-1.915-2.067-2.545
			c-0.864-0.636-1.943-0.951-3.241-0.951c-2.296,0-3.971,0.951-5.024,2.849C74.948,262.464,74.421,265.391,74.421,269.352z"/>
		<path d="M22.81,280.989h21.01v7.394h-2.991v-4.404h-5.857v22.301h4.442v2.991H27.173v-2.991h4.445v-22.301h-5.817v4.404H22.81
			V280.989z"/>
		<path d="M49.361,298.443L39.26,280.989h3.92l8.081,13.979h0.04l7.879-13.979h3.596L52.714,298.4v10.87h-3.353V298.443z"/>
		<path d="M59.695,281.271c1.023-0.243,2.126-0.405,3.312-0.484c1.185-0.083,2.357-0.122,3.515-0.122
			c1.238,0,2.498,0.122,3.778,0.363c1.277,0.243,2.444,0.687,3.496,1.334c1.049,0.646,1.903,1.534,2.565,2.667
			c0.658,1.132,0.989,2.571,0.989,4.323c0,1.725-0.31,3.177-0.928,4.365c-0.622,1.183-1.443,2.146-2.467,2.887
			c-1.024,0.743-2.196,1.271-3.513,1.596c-1.32,0.322-2.682,0.484-4.082,0.484c-0.135,0-0.357,0-0.667,0
			c-0.311,0-0.634-0.003-0.969-0.02c-0.338-0.012-0.667-0.032-0.99-0.06c-0.325-0.026-0.553-0.055-0.687-0.083v10.748h-3.354
			V281.271z M66.617,283.573c-0.705,0-1.379,0.015-2.028,0.043c-0.648,0.023-1.162,0.095-1.541,0.202v11.714
			c0.134,0.055,0.351,0.09,0.647,0.103c0.298,0.016,0.61,0.027,0.933,0.038c0.325,0.017,0.636,0.021,0.934,0.021
			c0.297,0,0.514,0,0.648,0c0.92,0,1.833-0.086,2.738-0.26c0.905-0.178,1.722-0.493,2.452-0.951c0.729-0.457,1.32-1.104,1.765-1.938
			c0.447-0.836,0.67-1.901,0.67-3.192c0-1.105-0.21-2.028-0.63-2.77c-0.419-0.738-0.973-1.334-1.663-1.775
			c-0.688-0.445-1.466-0.761-2.331-0.951C68.347,283.668,67.481,283.573,66.617,283.573z"/>
		<path d="M73.803,280.989H90.41v2.989H77.157v9.253h12.242v2.987H77.157v10.061H90.61v2.991H73.803V280.989z"/>
	</g>
</g>
</svg>
